<svg width="9" height="18" viewBox="0 0 9 18" fill="none" xmlns="http://www.w3.org/2000/svg">
<g clip-path="url(#clip0_1_527)">
<mask id="mask0_1_527" style="mask-type:luminance" maskUnits="userSpaceOnUse" x="0" y="0" width="9" height="18">
<path d="M9 0H0V18H9V0Z" fill="white"/>
</mask>
<g mask="url(#mask0_1_527)">
<path d="M6.03348 10.1343C6.03348 10.2553 6.03348 10.3417 6.03348 10.4286C6.03348 12.7157 6.03348 15.0034 6.03348 17.2905C6.03348 17.9373 5.97467 17.9996 5.3653 17.9996C4.59093 17.9996 3.81602 18.0002 3.04165 17.9996C2.61144 17.999 2.51179 17.8921 2.51179 17.4321C2.51124 15.108 2.51179 12.7845 2.51179 10.4604C2.51179 10.3734 2.51179 10.2865 2.51179 10.1748C2.42901 10.1696 2.35768 10.1613 2.28634 10.1613C1.69549 10.1602 1.10409 10.1625 0.513239 10.1602C0.103183 10.1584 0.00461706 10.0556 0.00298337 9.61791C-0.000284013 8.76018 0.00026055 7.90245 0.00298337 7.04472C0.00407249 6.58883 0.101005 6.48661 0.518685 6.48602C1.103 6.48543 1.68732 6.48602 2.27163 6.48602C2.34461 6.48602 2.41758 6.48602 2.51233 6.48602C2.51233 6.37733 2.51124 6.29156 2.51233 6.20579C2.52649 5.37097 2.49817 4.53204 2.56407 3.70133C2.72852 1.61106 4.21845 0.0976909 6.16417 0.0189677C6.9783 -0.0139316 7.7946 0.00545547 8.60981 0.00780542C8.87937 0.00839291 8.99536 0.134703 8.99699 0.426683C9.00135 1.2991 9.00135 2.17152 8.99699 3.04394C8.99536 3.34062 8.88263 3.45811 8.58748 3.46575C8.03747 3.48044 7.48692 3.48044 6.93691 3.48925C6.29868 3.49924 6.04709 3.76008 6.03566 4.45038C6.02477 5.10131 6.03348 5.75284 6.03348 6.42727C6.11952 6.43138 6.19086 6.43784 6.26274 6.43843C6.96958 6.43902 7.67588 6.43784 8.38272 6.43961C8.81075 6.44078 8.91694 6.55417 8.91749 7.00771C8.91858 7.88012 8.91858 8.75254 8.91749 9.62496C8.91694 10.0292 8.82328 10.1314 8.44644 10.1331C7.72653 10.1361 7.00607 10.1343 6.28561 10.1343C6.2121 10.1343 6.13803 10.1343 6.03457 10.1343H6.03348Z" fill="white"/>
</g>
</g>
<defs>
<clipPath id="clip0_1_527">
<rect width="9" height="18" fill="white"/>
</clipPath>
</defs>
</svg>
