<svg width="18" height="18" viewBox="0 0 18 18" fill="none" xmlns="http://www.w3.org/2000/svg">
<g clip-path="url(#clip0_1_534)">
<path d="M15 1H3C1.89543 1 1 1.89543 1 3V15C1 16.1046 1.89543 17 3 17H15C16.1046 17 17 16.1046 17 15V3C17 1.89543 16.1046 1 15 1Z" fill="white"/>
<path d="M14 0.5H4C2.067 0.5 0.5 2.067 0.5 4V14C0.5 15.933 2.067 17.5 4 17.5H14C15.933 17.5 17.5 15.933 17.5 14V4C17.5 2.067 15.933 0.5 14 0.5Z" stroke="white"/>
<path d="M9 13C11.2091 13 13 11.2091 13 9C13 6.79086 11.2091 5 9 5C6.79086 5 5 6.79086 5 9C5 11.2091 6.79086 13 9 13Z" stroke="#1E1E1E"/>
<path d="M14.4 4.49995C14.8971 4.49995 15.3 4.09701 15.3 3.59995C15.3 3.10289 14.8971 2.69995 14.4 2.69995C13.9029 2.69995 13.5 3.10289 13.5 3.59995C13.5 4.09701 13.9029 4.49995 14.4 4.49995Z" fill="#1E1E1E"/>
</g>
<defs>
<clipPath id="clip0_1_534">
<rect width="18" height="18" fill="white"/>
</clipPath>
</defs>
</svg>
