<svg width="30" height="30" viewBox="0 0 30 30" fill="none" xmlns="http://www.w3.org/2000/svg">
<g clip-path="url(#clip0_1_139)">
<path d="M-8.14645e-06 28.0003C0.086273 27.4933 0.144381 26.9793 0.263531 26.4805C0.983714 23.4633 2.70758 21.1896 5.3817 19.6287C5.45683 19.5847 5.53313 19.5419 5.63409 19.4838C4.4555 17.8232 4.08573 16.0095 4.64156 14.0485C5.03893 12.6479 5.86183 11.5301 7.06096 10.701C9.47037 9.03512 12.6892 9.30211 14.8122 11.34C16.8817 13.3262 17.4528 16.7201 15.4637 19.4732C15.5247 19.5143 15.5828 19.5589 15.6462 19.5953C18.7248 21.3832 20.5226 24.036 21.0133 27.5649C21.0684 27.9598 21.0802 28.3623 21.0849 28.7619C21.0931 29.4936 20.5924 29.9906 19.8535 29.9912C17.0907 29.9941 14.3279 29.9923 11.5652 29.9923C8.19728 29.9923 4.82939 29.9818 1.46149 30.0006C0.734849 30.0047 0.236531 29.7582 -0.000595093 29.0553C-0.000595093 28.7038 -0.000595093 28.3523 -0.000595093 28.0008L-8.14645e-06 28.0003ZM2.43406 27.6294H18.649C18.635 27.5126 18.6308 27.4146 18.6109 27.3202C18.0163 24.4843 16.3864 22.4793 13.7598 21.2711C13.5749 21.186 13.4252 21.1948 13.2403 21.2823C11.4355 22.1343 9.62943 22.1255 7.82047 21.2811C7.69251 21.2212 7.49354 21.216 7.36441 21.2705C5.6065 22.0175 4.26357 23.2333 3.33854 24.9044C2.87192 25.7476 2.56964 26.6477 2.43465 27.6288L2.43406 27.6294ZM10.5351 19.5677C12.6305 19.5707 14.3426 17.8749 14.352 15.7877C14.362 13.6835 12.6522 11.9584 10.5539 11.9549C8.46611 11.9514 6.74518 13.6577 6.73696 15.7396C6.72874 17.8491 8.43148 19.5654 10.5351 19.5683V19.5677Z" fill="black"/>
<path d="M26.9473 -2.35774e-05C27.5108 0.151364 28.0695 0.311554 28.545 0.675354C29.4718 1.38418 29.9789 2.31773 29.9883 3.48365C30.0053 5.63066 30.0006 7.77767 29.9912 9.92526C29.9824 11.8499 28.4352 13.3919 26.5059 13.4166C26.0862 13.4218 25.6654 13.4371 25.2469 13.4125C24.9311 13.3937 24.7016 13.4987 24.4669 13.7064C23.2536 14.7796 22.0222 15.8323 20.8043 16.9008C20.3935 17.2617 19.9497 17.4096 19.4344 17.1737C18.9196 16.9384 18.7359 16.5077 18.743 15.9602C18.7541 15.1211 18.7418 14.2815 18.7494 13.4424C18.7512 13.2834 18.7036 13.2065 18.5551 13.1373C17.1412 12.4812 16.4145 11.3676 16.4057 9.80849C16.394 7.7495 16.4022 5.68993 16.4034 3.63035C16.4046 1.7914 17.5339 0.418933 19.3475 0.0480919C19.3833 0.0410506 19.4156 0.0158193 19.4491 -0.000610352C21.9483 -0.000610352 24.4481 -0.000610352 26.9473 -0.000610352V-2.35774e-05ZM21.089 13.5462C21.933 12.8128 22.723 12.1327 23.5054 11.4444C23.7907 11.1933 24.1077 11.0671 24.4903 11.073C25.1342 11.083 25.7781 11.0794 26.422 11.0742C27.1604 11.0683 27.6481 10.5795 27.6493 9.84018C27.6522 7.75244 27.6522 5.66411 27.6493 3.57636C27.6481 2.8382 27.1551 2.34473 26.419 2.34414C24.2726 2.34121 22.1255 2.34121 19.9791 2.34414C19.2419 2.34531 18.7482 2.83762 18.7471 3.57402C18.7441 5.66176 18.7441 7.75009 18.7471 9.83783C18.7482 10.5566 19.2014 11.0325 19.9127 11.0742C20.6253 11.1164 21.0819 11.5929 21.0884 12.3064C21.0919 12.6948 21.089 13.0833 21.089 13.5457V13.5462Z" fill="black"/>
</g>
<defs>
<clipPath id="clip0_1_139">
<rect width="30" height="30" fill="white"/>
</clipPath>
</defs>
</svg>
