<svg width="43" height="30" viewBox="0 0 43 30" fill="none" xmlns="http://www.w3.org/2000/svg">
<path d="M13.6003 29.9983C12.0848 29.7065 10.6975 29.1756 9.73325 27.8762C9.50062 27.5623 9.20562 27.2434 9.12134 26.8838C8.90051 25.9576 8.31051 25.8456 7.5098 25.9169C6.81529 25.9779 6.11235 25.9474 5.41279 25.9237C4.44688 25.8897 3.83834 25.3232 3.86025 24.5191C3.88048 23.7354 4.45362 23.2366 5.40436 23.2163C6.29947 23.1976 7.19458 23.1925 8.08969 23.218C8.50943 23.2299 8.72857 23.1094 8.8904 22.6904C9.75685 20.4377 11.6937 19.067 13.9458 19.0619C16.1878 19.0551 18.1483 20.4343 19.0147 22.6735C19.1732 23.0823 19.3755 23.2214 19.8053 23.218C22.0709 23.1993 24.3365 23.1959 26.6038 23.218C27.0825 23.2231 27.2578 23.0433 27.423 22.6022C28.217 20.4716 30.2584 19.0619 32.465 19.0585C34.6378 19.0551 36.6826 20.4326 37.4715 22.5208C37.6789 23.0721 37.9435 23.2604 38.5015 23.2129C39.0527 23.1671 39.6107 23.2027 40.2175 23.2027C40.2462 22.9262 40.2866 22.7125 40.2883 22.5004C40.2951 21.2078 40.1703 19.8999 40.3204 18.626C40.5328 16.8278 39.9849 15.3825 38.7206 14.1815C38.4357 13.9101 37.9941 13.6556 37.6215 13.6506C34.5165 13.6081 31.4114 13.6285 28.3063 13.6251C26.8634 13.6251 26.4082 13.1654 26.4065 11.6964C26.4015 9.05513 26.4066 6.41221 26.4049 3.77099C26.4049 3.46565 26.4049 3.15861 26.4049 2.72434C26.0155 2.72434 25.6918 2.72434 25.3682 2.72434C18.8782 2.72434 12.3882 2.72434 5.89827 2.72434C4.52105 2.72434 3.8788 2.30195 3.86362 1.3961C3.8434 0.464801 4.52442 0 5.92861 0C12.8939 0 19.8593 0 26.8263 0C28.7682 0 29.0396 0.262935 29.1189 2.20356C29.1239 2.33927 29.1509 2.47498 29.1812 2.72943C30.5871 2.72943 31.9862 2.84478 33.3601 2.70059C35.1318 2.51399 36.1971 3.13147 36.8191 4.83291C37.2777 6.08821 38.0379 7.22986 38.5925 8.45632C39.5702 10.6175 40.8362 12.5818 42.3162 14.4309C42.6989 14.9092 42.9416 15.6353 42.9585 16.2545C43.0276 18.8668 42.9905 21.4809 42.9871 24.095C42.9855 25.4385 42.505 25.9203 41.1683 25.9304C40.1889 25.9389 39.2095 25.9169 38.2318 25.944C38.0211 25.9491 37.6772 26.0543 37.6266 26.1968C36.8242 28.4394 35.1436 29.5573 32.9151 30H32.0756C32.0014 29.9644 31.9289 29.905 31.8514 29.8948C29.665 29.5878 28.2086 28.3715 27.3573 26.341C27.2713 26.134 26.86 25.9542 26.597 25.9508C24.5337 25.9186 22.4687 25.9779 20.4071 25.9118C19.5542 25.8846 18.9827 26.0153 18.7602 26.9432C18.681 27.2757 18.4028 27.5674 18.1904 27.8609C17.2633 29.1383 15.9029 29.659 14.4448 30H13.6053L13.6003 29.9983ZM36.7736 10.8753C35.8971 9.12638 35.0896 7.49788 34.2603 5.88295C34.1726 5.71162 33.9535 5.49618 33.7933 5.49279C32.2661 5.46395 30.7371 5.47583 29.1694 5.47583V10.877H36.7736V10.8753ZM16.6396 24.5157C16.643 23.0042 15.4276 21.7812 13.9357 21.793C12.4826 21.8032 11.2757 23.0042 11.2538 24.4631C11.2302 25.9644 12.4321 27.2061 13.9256 27.2214C15.4276 27.2383 16.6379 26.0305 16.6413 24.5157H16.6396ZM35.12 24.5055C35.125 22.9992 33.9838 21.8151 32.5004 21.7913C31.0288 21.7659 29.7493 23.0348 29.7527 24.5157C29.756 25.9729 30.9664 27.1976 32.4262 27.2231C33.94 27.2485 35.1149 26.0645 35.12 24.5055Z" fill="black"/>
<path d="M0 11.9491C0.386026 11.184 1.00974 10.9245 1.85259 10.9313C5.37234 10.9567 8.89209 10.9398 12.4118 10.9449C12.6883 10.9449 12.9782 10.9449 13.2412 11.0212C13.9138 11.2129 14.288 11.698 14.2408 12.3918C14.1936 13.0789 13.7857 13.525 13.0811 13.6285C12.835 13.6641 12.5787 13.6539 12.3276 13.6539C8.86343 13.6539 5.39931 13.637 1.93519 13.6675C1.11931 13.6743 0.463569 13.4894 0 12.7905V11.9474L0 11.9491Z" fill="black"/>
<path d="M9.32196 8.3087C7.45082 8.3087 5.57969 8.33753 3.71024 8.29682C2.55385 8.27138 1.84923 7.25526 2.40382 6.38334C2.64657 6.00166 3.23656 5.63016 3.67653 5.62337C7.44577 5.564 11.215 5.57248 14.9842 5.59962C15.908 5.60641 16.4727 6.20352 16.4592 6.98045C16.4457 7.75908 15.8793 8.28834 14.9337 8.30191C13.0625 8.32736 11.1914 8.31039 9.32196 8.3087Z" fill="black"/>
<path d="M6.69919 16.3172C7.67521 16.3172 8.65124 16.3019 9.62726 16.3223C10.5679 16.341 11.114 16.8499 11.114 17.6607C11.114 18.4682 10.5645 19.0093 9.63232 19.0195C7.65161 19.0432 5.67091 19.0449 3.69189 19.0195C2.80015 19.0076 2.19667 18.3884 2.22196 17.6234C2.24893 16.8668 2.81364 16.3443 3.68683 16.324C4.68983 16.3019 5.69451 16.3189 6.69919 16.3189V16.3172Z" fill="black"/>
</svg>
