<svg width="30" height="30" viewBox="0 0 30 30" fill="none" xmlns="http://www.w3.org/2000/svg">
<g clip-path="url(#clip0_1_146)">
<path d="M15.2692 30.0002H14.7335C13.4851 29.3397 12.2031 28.7364 10.9949 28.0088C6.92747 25.5591 3.97351 22.14 2.20959 17.7105C0.958475 14.5688 0.369832 11.2888 0.131555 7.93351C0.0872561 7.31136 0.0436281 6.68989 0 6.06842C0 5.37573 0 4.68304 0 3.99035C0.437623 3.19352 0.775909 3.05646 1.66391 3.31647C2.73582 3.6309 3.81981 3.89226 4.94272 3.92182C8.37256 4.01117 11.3561 2.85624 13.8945 0.581317C14.7839 -0.215512 15.2665 -0.173185 16.1155 0.587364C18.5137 2.73531 21.3281 3.88554 24.568 3.92988C25.9225 3.94869 27.2212 3.64971 28.5079 3.26474C29.365 3.00808 30.0107 3.49451 30 4.3854C29.9913 5.15536 29.9718 5.92598 29.9403 6.69594C29.8302 9.40153 29.4818 12.0735 28.7925 14.6971C27.238 20.6169 23.9008 25.1977 18.5815 28.2728C17.5043 28.8956 16.3746 29.4271 15.2692 30.0002ZM2.17738 5.69822C2.17201 5.76742 2.16395 5.81109 2.16529 5.85409C2.25255 8.39239 2.5009 10.9112 3.08954 13.3877C3.7406 16.1269 4.77157 18.7008 6.42205 21.0026C8.59003 24.0266 11.5178 26.0899 14.8349 27.656C14.9356 27.7037 15.0987 27.6923 15.2027 27.6433C15.6571 27.4316 16.1035 27.2019 16.5478 26.9687C21.6771 24.2705 25.0586 20.1567 26.6111 14.55C27.2998 12.0628 27.6468 9.52582 27.7877 6.95528C27.8105 6.53939 27.7911 6.12149 27.7911 5.68075C25.5278 6.24646 23.2759 6.19406 21.0321 5.61625C18.7842 5.03711 16.7847 3.96885 15.0148 2.49747C11.2091 5.51951 6.99257 6.7423 2.17738 5.69889V5.69822Z" fill="black"/>
<path d="M13.9456 16.7529C14.0677 16.5936 14.1328 16.4868 14.2187 16.4008C15.992 14.6224 17.7647 12.844 19.5434 11.0702C20.1897 10.4253 21.1717 10.6591 21.3945 11.5043C21.4966 11.8933 21.3952 12.2406 21.116 12.5208C18.9729 14.6714 16.829 16.8214 14.6772 18.9619C14.2382 19.3987 13.616 19.3906 13.1757 18.9552C12.0957 17.8883 11.0225 16.8153 9.95728 15.7336C9.52637 15.2956 9.54113 14.6479 9.95862 14.2287C10.3761 13.8094 11.0211 13.7933 11.4621 14.2226C12.1977 14.9388 12.9179 15.6712 13.6422 16.3988C13.7281 16.4855 13.8019 16.5842 13.9456 16.7529Z" fill="black"/>
</g>
<defs>
<clipPath id="clip0_1_146">
<rect width="30" height="30" fill="white"/>
</clipPath>
</defs>
</svg>
