<svg width="18" height="18" viewBox="0 0 18 18" fill="none" xmlns="http://www.w3.org/2000/svg">
<g clip-path="url(#clip0_1_522)">
<path d="M18 17.35C16.9257 17.9822 15.7669 17.6256 14.6471 17.5851C14.5073 17.5802 14.2798 17.0307 14.2732 16.7309C14.2375 14.9657 14.257 13.2006 14.2537 11.4338C14.2537 11.1663 14.2619 10.8973 14.231 10.6331C14.0928 9.45467 13.1697 8.63288 12.0677 8.69286C10.9414 8.75445 10.1207 9.62325 10.1077 10.8292C10.0881 12.7013 10.1028 14.5751 10.0995 16.4472C10.0995 17.6045 10.0264 17.6758 8.86431 17.6775C8.32797 17.6775 7.79 17.6515 7.25528 17.6839C6.52228 17.7277 6.24598 17.4003 6.25086 16.6871C6.26711 13.7987 6.25736 10.9086 6.25736 8.01856C6.25736 7.53716 6.26061 7.05576 6.25736 6.57435C6.25411 6.01514 6.51578 5.73149 7.0895 5.74283C7.59822 5.75256 8.10855 5.74283 8.61889 5.74283C9.52147 5.74283 10.0399 6.2291 10.1743 7.20164C11.1283 5.83198 12.4188 5.44459 13.9319 5.55481C15.8368 5.69259 17.3223 6.87584 17.8342 8.71879C17.8765 8.86791 17.9431 9.01055 17.9984 9.15643V17.35H18Z" fill="white"/>
<path d="M2.69607 0C2.86673 0.113462 3.03901 0.225304 3.20966 0.340387C4.0093 0.881765 4.34086 1.83323 4.04018 2.72148C3.74438 3.59514 2.93011 4.17866 2.03621 4.15759C1.10492 4.13652 0.308533 3.49464 0.0663658 2.56749C-0.170925 1.65979 0.230519 0.758577 1.08704 0.270689C1.24632 0.179919 1.40722 0.0907699 1.56813 0H2.69607Z" fill="white"/>
<path d="M3.98718 11.9152C3.98718 13.6269 3.97418 15.3369 3.99368 17.0486C4.00181 17.7358 3.71088 18.0243 3.02826 18C2.35865 17.9757 1.68741 17.9854 1.01779 17.9968C0.455443 18.0065 0.15314 17.7472 0.151515 17.1863C0.146639 13.6301 0.148264 10.0755 0.151515 6.51925C0.151515 6.00057 0.422937 5.73798 0.956029 5.74447C1.67928 5.75257 2.40416 5.75744 3.12741 5.74285C3.74339 5.72988 3.99206 6.02002 3.98718 6.62299C3.97418 8.38814 3.9823 10.1517 3.9823 11.9168L3.98718 11.9152Z" fill="white"/>
</g>
<defs>
<clipPath id="clip0_1_522">
<rect width="18" height="18" fill="white"/>
</clipPath>
</defs>
</svg>
