<svg width="18" height="31" viewBox="0 0 18 31" fill="none" xmlns="http://www.w3.org/2000/svg">
<path d="M14.9827 31C14.4312 30.8254 14.0411 30.4288 13.6456 30.0279C9.31133 25.6374 4.97468 21.25 0.632633 16.8674C0.0997022 16.3295 -0.149956 15.7182 0.0937018 14.9826C0.184925 14.7079 0.364967 14.4374 0.569015 14.23C5.0617 9.67158 9.56099 5.12039 14.0645 0.573454C14.8213 -0.190636 15.8001 -0.187601 16.5641 0.561329C16.9218 0.911838 17.2849 1.26174 17.6065 1.645C18.1497 2.29144 18.1227 3.18652 17.5741 3.83175C17.4895 3.93121 17.3977 4.02399 17.3065 4.11677C13.6462 7.81897 9.98589 11.5218 6.32441 15.2222C6.24039 15.307 6.14076 15.3768 5.98172 15.5884C6.08675 15.6466 6.21278 15.6836 6.2944 15.7661C9.99309 19.5011 13.6888 23.239 17.3833 26.9782C18.0722 27.6756 18.2097 28.6374 17.6425 29.2899C17.064 29.9551 16.5209 30.6859 15.6411 31L14.9827 31Z" fill="#9B9595"/>
</svg>
